<svg width="76" height="56" viewBox="0 0 76 56" fill="none" xmlns="http://www.w3.org/2000/svg">
<rect x="8" y="16" width="60" height="8" rx="4" fill="#121212"/>
<path fill-rule="evenodd" clip-rule="evenodd" d="M12 24H64C63.2429 24 62.5841 24.4207 62.2445 25.041C61.9793 25.5255 61.5523 26 61 26L15 26C14.4477 26 14.0207 25.5255 13.7555 25.041C13.4159 24.4207 12.7571 24 12 24Z" fill="url(#paint0_linear_20_2)"/>
<rect x="8" y="27" width="60" height="8" rx="4" fill="#121212"/>
<path fill-rule="evenodd" clip-rule="evenodd" d="M12 35H64C63.2429 35 62.5841 35.4207 62.2445 36.041C61.9793 36.5255 61.5523 37 61 37L15 37C14.4477 37 14.0207 36.5255 13.7555 36.041C13.4159 35.4207 12.7571 35 12 35Z" fill="url(#paint1_linear_20_2)"/>
<rect x="8" y="38" width="60" height="8" rx="4" fill="#121212"/>
<path fill-rule="evenodd" clip-rule="evenodd" d="M12 46H64C63.2429 46 62.5841 46.4207 62.2445 47.041C61.9793 47.5255 61.5523 48 61 48L15 48C14.4477 48 14.0207 47.5255 13.7555 47.041C13.4159 46.4207 12.7571 46 12 46Z" fill="url(#paint2_linear_20_2)"/>
<path d="M22.6582 7.79883C22.6908 7.83789 22.7233 7.94857 22.7559 8.13086C22.7884 8.31315 22.8112 8.51172 22.8242 8.72656C22.8438 8.94141 22.8503 9.14323 22.8438 9.33203C22.8438 9.52083 22.8275 9.64453 22.7949 9.70312C22.7689 9.74219 22.7038 9.8138 22.5996 9.91797C22.4954 10.0156 22.375 10.1263 22.2383 10.25C22.1016 10.3737 21.9583 10.4974 21.8086 10.6211C21.6654 10.7383 21.5384 10.8392 21.4277 10.9238C21.4798 11.028 21.5449 11.1647 21.623 11.334C21.7012 11.4967 21.7858 11.6725 21.877 11.8613C21.9681 12.0436 22.056 12.2324 22.1406 12.4277C22.2318 12.623 22.3132 12.8021 22.3848 12.9648C22.4564 13.1211 22.515 13.2546 22.5605 13.3652C22.6061 13.4694 22.6289 13.5312 22.6289 13.5508C22.6289 13.5833 22.6126 13.6289 22.5801 13.6875C22.554 13.7461 22.5182 13.8014 22.4727 13.8535C22.4271 13.8991 22.3783 13.9382 22.3262 13.9707C22.2741 14.0033 22.2253 14.0098 22.1797 13.9902C22.1536 13.9837 22.1048 13.9316 22.0332 13.834C21.9616 13.7298 21.8737 13.6029 21.7695 13.4531C21.6719 13.2969 21.5612 13.1211 21.4375 12.9258C21.3203 12.7305 21.1999 12.5352 21.0762 12.3398C20.9525 12.138 20.8353 11.946 20.7246 11.7637C20.6139 11.5749 20.5163 11.4089 20.4316 11.2656C20.4186 11.9427 20.4023 12.4635 20.3828 12.8281C20.3698 13.1927 20.36 13.4596 20.3535 13.6289C20.3405 13.8307 20.3275 13.9447 20.3145 13.9707C20.2949 13.9707 20.2526 13.9447 20.1875 13.8926C20.1224 13.834 20.054 13.7656 19.9824 13.6875C19.9108 13.6094 19.8424 13.5312 19.7773 13.4531C19.7188 13.375 19.6829 13.3164 19.6699 13.2773C19.6569 13.1927 19.6374 12.9486 19.6113 12.5449C19.5983 12.3691 19.5853 12.151 19.5723 11.8906C19.5592 11.6302 19.543 11.3145 19.5234 10.9434C19.5104 10.5723 19.4909 10.1361 19.4648 9.63477C19.4388 9.13346 19.4128 8.55729 19.3867 7.90625C19.2695 7.89974 19.1751 7.89974 19.1035 7.90625C19.0319 7.90625 18.9766 7.90951 18.9375 7.91602C18.8984 7.92253 18.8691 7.92578 18.8496 7.92578C18.8301 7.91927 18.8138 7.90299 18.8008 7.87695C18.7747 7.82487 18.7552 7.73698 18.7422 7.61328C18.7292 7.48307 18.7227 7.35938 18.7227 7.24219C18.7227 7.11198 18.7422 6.98177 18.7812 6.85156C18.8138 6.72135 18.8561 6.63997 18.9082 6.60742C18.9342 6.58789 19.0254 6.59115 19.1816 6.61719C19.3379 6.63672 19.5104 6.66276 19.6992 6.69531C19.888 6.72786 20.0671 6.76367 20.2363 6.80273C20.4121 6.8418 20.526 6.86784 20.5781 6.88086C20.6237 6.89388 20.6986 6.91667 20.8027 6.94922C20.9069 6.97526 21.0273 7.01432 21.1641 7.06641C21.3008 7.11198 21.444 7.16406 21.5938 7.22266C21.75 7.28125 21.8965 7.3431 22.0332 7.4082C22.1699 7.47331 22.2936 7.53841 22.4043 7.60352C22.515 7.66862 22.5996 7.73372 22.6582 7.79883ZM20.4609 10.5527C20.5195 10.5202 20.5977 10.4583 20.6953 10.3672C20.793 10.2695 20.8971 10.1621 21.0078 10.0449C21.125 9.92122 21.2422 9.79427 21.3594 9.66406C21.4766 9.52734 21.5807 9.40039 21.6719 9.2832C21.7695 9.16602 21.8477 9.0651 21.9062 8.98047C21.9648 8.89583 21.9941 8.84049 21.9941 8.81445C21.9941 8.76888 21.9518 8.7168 21.8672 8.6582C21.7891 8.5931 21.6849 8.52799 21.5547 8.46289C21.4245 8.39779 21.2715 8.33594 21.0957 8.27734C20.9199 8.21224 20.7409 8.1569 20.5586 8.11133L20.4609 10.5527ZM24.0156 11.1777C24.1198 11.1387 24.237 11.0964 24.3672 11.0508C24.5039 10.9987 24.6341 10.9531 24.7578 10.9141C24.8815 10.8685 24.9922 10.8294 25.0898 10.7969C25.1875 10.7643 25.2591 10.7383 25.3047 10.7188C25.2982 10.6471 25.2884 10.5658 25.2754 10.4746C25.2689 10.377 25.2591 10.2858 25.2461 10.2012C25.2331 10.11 25.2168 10.0319 25.1973 9.9668C25.1777 9.90169 25.1582 9.86263 25.1387 9.84961C25.0866 9.83008 24.9987 9.8138 24.875 9.80078C24.7578 9.78125 24.6341 9.78451 24.5039 9.81055C24.3802 9.83659 24.2663 9.88542 24.1621 9.95703C24.0579 10.0286 23.9993 10.1426 23.9863 10.2988C23.9733 10.403 23.9701 10.5332 23.9766 10.6895C23.9831 10.8457 23.9961 11.0085 24.0156 11.1777ZM26.1348 11.334C26.1283 11.347 26.0501 11.373 25.9004 11.4121C25.7507 11.4512 25.5716 11.4935 25.3633 11.5391C25.1549 11.5781 24.9336 11.6204 24.6992 11.666C24.4648 11.7051 24.263 11.7376 24.0938 11.7637C24.1263 12.0241 24.1654 12.2585 24.2109 12.4668C24.2565 12.6686 24.2956 12.7956 24.3281 12.8477C24.3607 12.8932 24.403 12.9355 24.4551 12.9746C24.5007 13.0072 24.556 13.0397 24.6211 13.0723C24.6927 13.0983 24.7773 13.1178 24.875 13.1309C24.9466 13.1504 25.015 13.1243 25.0801 13.0527C25.1322 12.9876 25.1777 12.8737 25.2168 12.7109C25.2624 12.5482 25.2852 12.291 25.2852 11.9395C25.487 11.9069 25.6432 11.8874 25.7539 11.8809C25.8711 11.8743 25.9557 11.8743 26.0078 11.8809C26.0729 11.8874 26.112 11.8971 26.125 11.9102C26.1315 11.9297 26.1315 11.9785 26.125 12.0566C26.1185 12.1348 26.1022 12.2324 26.0762 12.3496C26.0566 12.4603 26.0306 12.584 25.998 12.7207C25.972 12.8509 25.9395 12.9779 25.9004 13.1016C25.8613 13.2188 25.819 13.3262 25.7734 13.4238C25.7279 13.515 25.679 13.5801 25.627 13.6191C25.4707 13.7363 25.2754 13.7949 25.041 13.7949C24.8066 13.7884 24.5755 13.7559 24.3477 13.6973C24.1198 13.6322 23.9147 13.5573 23.7324 13.4727C23.5501 13.3815 23.4362 13.3066 23.3906 13.248C23.3581 13.209 23.3288 13.1113 23.3027 12.9551C23.2767 12.7923 23.2539 12.597 23.2344 12.3691C23.2214 12.1413 23.2116 11.8906 23.2051 11.6172C23.1986 11.3438 23.2018 11.0768 23.2148 10.8164C23.2344 10.556 23.2604 10.3151 23.293 10.0938C23.332 9.8724 23.3841 9.69336 23.4492 9.55664C23.5469 9.36133 23.7064 9.20182 23.9277 9.07812C24.1491 8.95443 24.3835 8.86979 24.6309 8.82422C24.8783 8.77865 25.1126 8.77214 25.334 8.80469C25.5618 8.83724 25.7311 8.90885 25.8418 9.01953C25.9069 9.08464 25.9655 9.21484 26.0176 9.41016C26.0697 9.59896 26.1022 9.83008 26.1152 10.1035C26.1152 10.1296 26.1185 10.2044 26.125 10.3281C26.1315 10.4518 26.1348 10.5853 26.1348 10.7285C26.1413 10.8652 26.1445 10.9954 26.1445 11.1191C26.1445 11.2428 26.1413 11.3145 26.1348 11.334ZM29.3184 8.86328C29.3574 8.90885 29.3932 8.95768 29.4258 9.00977C29.4583 9.05534 29.4876 9.12044 29.5137 9.20508C29.5397 9.2832 29.5592 9.38737 29.5723 9.51758C29.5918 9.64779 29.6016 9.81706 29.6016 10.0254C29.6016 10.3574 29.5918 10.6927 29.5723 11.0312C29.5592 11.3633 29.5462 11.6562 29.5332 11.9102C29.5267 12.138 29.5202 12.3496 29.5137 12.5449C29.5072 12.7402 29.5007 12.9128 29.4941 13.0625C29.4876 13.2057 29.4779 13.3197 29.4648 13.4043C29.4583 13.4889 29.4518 13.5345 29.4453 13.541C29.4193 13.5605 29.377 13.554 29.3184 13.5215C29.2663 13.4824 29.2077 13.4336 29.1426 13.375C29.084 13.3164 29.0286 13.2546 28.9766 13.1895C28.9245 13.1243 28.8919 13.0723 28.8789 13.0332C28.8789 13.0007 28.8691 12.9062 28.8496 12.75C28.6934 12.8411 28.5208 12.9062 28.332 12.9453C28.1432 12.9779 27.9544 12.9909 27.7656 12.9844C27.5833 12.9714 27.4141 12.9355 27.2578 12.877C27.1016 12.8184 26.9844 12.7402 26.9062 12.6426C26.8737 12.6035 26.8444 12.5449 26.8184 12.4668C26.7988 12.3887 26.7793 12.3008 26.7598 12.2031C26.7467 12.099 26.7337 11.9915 26.7207 11.8809C26.7077 11.7637 26.6979 11.6562 26.6914 11.5586C26.6784 11.3047 26.7109 11.0866 26.7891 10.9043C26.8672 10.7155 27.0104 10.5755 27.2188 10.4844C27.3099 10.4453 27.4303 10.4258 27.5801 10.4258C27.7363 10.4193 27.8893 10.4258 28.0391 10.4453C28.1953 10.4583 28.3353 10.4779 28.459 10.5039C28.5827 10.5234 28.6608 10.5397 28.6934 10.5527C28.6673 10.2207 28.6478 9.93424 28.6348 9.69336C28.6217 9.44596 28.5957 9.28646 28.5566 9.21484C28.5241 9.16927 28.485 9.1237 28.4395 9.07812C28.4004 9.04557 28.3483 9.00977 28.2832 8.9707C28.2181 8.93164 28.14 8.90234 28.0488 8.88281C27.9772 8.86979 27.9121 8.89909 27.8535 8.9707C27.8014 9.03581 27.7526 9.15299 27.707 9.32227C27.668 9.48503 27.6452 9.73568 27.6387 10.0742C27.4108 10.0807 27.235 10.0807 27.1113 10.0742C26.9941 10.0612 26.9062 10.0482 26.8477 10.0352C26.776 10.0221 26.7337 10.0059 26.7207 9.98633C26.7077 9.96029 26.7142 9.86589 26.7402 9.70312C26.7663 9.53385 26.8021 9.35156 26.8477 9.15625C26.8997 8.96094 26.9583 8.77539 27.0234 8.59961C27.0951 8.42383 27.1699 8.31315 27.248 8.26758C27.4043 8.17643 27.5898 8.14388 27.8047 8.16992C28.026 8.19596 28.2409 8.2513 28.4492 8.33594C28.6576 8.42057 28.8431 8.51497 29.0059 8.61914C29.1686 8.72331 29.2728 8.80469 29.3184 8.86328ZM28.7129 11.7148C28.7129 11.6823 28.7161 11.64 28.7227 11.5879C28.7292 11.5293 28.7324 11.4707 28.7324 11.4121C28.7324 11.3535 28.7292 11.2982 28.7227 11.2461C28.7227 11.194 28.7161 11.1549 28.7031 11.1289C28.6836 11.0898 28.625 11.0573 28.5273 11.0312C28.4362 11.0052 28.332 10.9889 28.2148 10.9824C28.0977 10.9694 27.987 10.9661 27.8828 10.9727C27.7786 10.9727 27.707 10.9857 27.668 11.0117C27.6159 11.0443 27.5768 11.0898 27.5508 11.1484C27.5312 11.207 27.5182 11.2982 27.5117 11.4219C27.5117 11.4805 27.515 11.5423 27.5215 11.6074C27.528 11.6725 27.5345 11.7376 27.541 11.8027C27.554 11.8613 27.5671 11.9134 27.5801 11.959C27.5996 12.0046 27.6191 12.0339 27.6387 12.0469C27.6842 12.0794 27.7624 12.1087 27.873 12.1348C27.9902 12.1543 28.1074 12.1608 28.2246 12.1543C28.3418 12.1413 28.4492 12.1022 28.5469 12.0371C28.6445 11.972 28.6999 11.8646 28.7129 11.7148ZM31.7891 8.6582C31.763 8.63216 31.7077 8.60612 31.623 8.58008C31.5384 8.55404 31.4798 8.5638 31.4473 8.60938C31.4277 8.63542 31.3952 8.72005 31.3496 8.86328C31.304 9.00651 31.2552 9.1888 31.2031 9.41016C31.1576 9.63151 31.1152 9.88542 31.0762 10.1719C31.0436 10.4583 31.0273 10.7546 31.0273 11.0605C31.0273 11.2819 31.0371 11.4935 31.0566 11.6953C31.0762 11.8906 31.099 12.0632 31.125 12.2129C31.1576 12.3626 31.1934 12.4831 31.2324 12.5742C31.278 12.6654 31.3236 12.7142 31.3691 12.7207C31.4082 12.7207 31.4538 12.6751 31.5059 12.584C31.5645 12.4928 31.6198 12.3887 31.6719 12.2715C31.7305 12.1478 31.7793 12.0339 31.8184 11.9297C31.8639 11.819 31.8965 11.7474 31.916 11.7148C31.9681 11.6302 32.0365 11.5586 32.1211 11.5C32.2057 11.4349 32.2773 11.4023 32.3359 11.4023C32.3685 11.4023 32.3913 11.4251 32.4043 11.4707C32.4238 11.5163 32.4368 11.5716 32.4434 11.6367C32.4564 11.6953 32.4629 11.7572 32.4629 11.8223C32.4629 11.8874 32.4629 11.9395 32.4629 11.9785C32.4629 12.0501 32.4499 12.1836 32.4238 12.3789C32.3978 12.5742 32.3587 12.7728 32.3066 12.9746C32.2611 13.1764 32.2057 13.3555 32.1406 13.5117C32.082 13.668 32.0169 13.7428 31.9453 13.7363C31.8737 13.7298 31.7663 13.6973 31.623 13.6387C31.4798 13.5801 31.3333 13.5117 31.1836 13.4336C31.0404 13.3555 30.9069 13.2773 30.7832 13.1992C30.666 13.1146 30.5944 13.0495 30.5684 13.0039C30.5423 12.9583 30.5033 12.8477 30.4512 12.6719C30.3991 12.4896 30.3438 12.2682 30.2852 12.0078C30.2331 11.7474 30.1875 11.4609 30.1484 11.1484C30.1094 10.8359 30.0898 10.5234 30.0898 10.2109C30.0898 9.89844 30.0964 9.58919 30.1094 9.2832C30.1289 8.97721 30.1582 8.70378 30.1973 8.46289C30.2363 8.22201 30.2852 8.02669 30.3438 7.87695C30.4089 7.72721 30.487 7.64909 30.5781 7.64258C30.832 7.61654 31.0859 7.63932 31.3398 7.71094C31.6003 7.77604 31.8314 7.86719 32.0332 7.98438C32.2415 8.09505 32.4108 8.21549 32.541 8.3457C32.6712 8.4694 32.7396 8.57357 32.7461 8.6582C32.7526 8.74935 32.7461 8.8763 32.7266 9.03906C32.7135 9.20182 32.6908 9.36784 32.6582 9.53711C32.6322 9.69987 32.5996 9.84961 32.5605 9.98633C32.528 10.1165 32.4987 10.1914 32.4727 10.2109C32.4141 10.2695 32.3457 10.3314 32.2676 10.3965C32.1895 10.4616 32.1146 10.4746 32.043 10.4355C32.0169 10.4225 31.9941 10.3737 31.9746 10.2891C31.9551 10.1979 31.9355 10.0872 31.916 9.95703C31.903 9.82682 31.89 9.68685 31.877 9.53711C31.8639 9.38737 31.8509 9.25065 31.8379 9.12695C31.8314 8.99674 31.8216 8.88932 31.8086 8.80469C31.8021 8.71354 31.7956 8.66471 31.7891 8.6582ZM35.2656 8.98047C35.2721 9 35.2721 9.05534 35.2656 9.14648C35.2591 9.23112 35.2461 9.32878 35.2266 9.43945C35.2135 9.54362 35.1973 9.64128 35.1777 9.73242C35.1582 9.81706 35.1419 9.86914 35.1289 9.88867C35.0638 9.89518 34.9987 9.89844 34.9336 9.89844C34.8685 9.89193 34.8066 9.88867 34.748 9.88867H34.543C34.5365 10.3184 34.5267 10.7448 34.5137 11.168C34.5007 11.5911 34.4844 11.972 34.4648 12.3105C34.4453 12.6426 34.4225 12.9128 34.3965 13.1211C34.377 13.3294 34.3574 13.4368 34.3379 13.4434C34.2923 13.4499 34.2402 13.4303 34.1816 13.3848C34.123 13.3392 34.0645 13.2839 34.0059 13.2188C33.9538 13.1471 33.9049 13.0755 33.8594 13.0039C33.8203 12.9258 33.7975 12.8574 33.791 12.7988C33.7585 12.4017 33.7292 12.0241 33.7031 11.666C33.6771 11.3014 33.6576 10.9792 33.6445 10.6992C33.6185 10.3737 33.6022 10.071 33.5957 9.79102C33.5241 9.78451 33.4525 9.77474 33.3809 9.76172C33.3158 9.7487 33.2474 9.73568 33.1758 9.72266C33.1107 9.70964 33.0423 9.69661 32.9707 9.68359C32.9577 9.67057 32.9414 9.64128 32.9219 9.5957C32.9023 9.54362 32.8828 9.48828 32.8633 9.42969C32.8503 9.37109 32.8372 9.31576 32.8242 9.26367C32.8112 9.20508 32.8047 9.16276 32.8047 9.13672C32.8047 9.11719 32.8763 9.09766 33.0195 9.07812C33.1693 9.05859 33.3516 9.04232 33.5664 9.0293C33.5534 8.68424 33.5436 8.38477 33.5371 8.13086C33.5371 7.87044 33.5469 7.69466 33.5664 7.60352C33.5859 7.47982 33.638 7.36263 33.7227 7.25195C33.8138 7.13477 33.9082 7.03385 34.0059 6.94922C34.11 6.86458 34.2044 6.80273 34.2891 6.76367C34.3802 6.7181 34.4388 6.70508 34.4648 6.72461C34.4844 6.73763 34.5007 6.80599 34.5137 6.92969C34.5267 7.04688 34.5365 7.20638 34.543 7.4082C34.5495 7.61003 34.5527 7.84766 34.5527 8.12109C34.5527 8.38802 34.5527 8.67122 34.5527 8.9707C34.748 8.95768 34.9141 8.95443 35.0508 8.96094C35.1875 8.96094 35.2591 8.96745 35.2656 8.98047ZM42.1895 7.26172C42.2025 7.28776 42.209 7.37891 42.209 7.53516C42.2155 7.69141 42.2155 7.88021 42.209 8.10156C42.209 8.32292 42.2025 8.56055 42.1895 8.81445C42.1764 9.06185 42.1602 9.29622 42.1406 9.51758C42.1276 9.64128 42.1048 9.82682 42.0723 10.0742C42.0462 10.3216 42.0137 10.5951 41.9746 10.8945C41.9355 11.194 41.8932 11.5033 41.8477 11.8223C41.8086 12.1348 41.7695 12.4245 41.7305 12.6914C41.6914 12.9518 41.6556 13.1699 41.623 13.3457C41.597 13.5215 41.5775 13.6159 41.5645 13.6289C41.5384 13.6484 41.4961 13.6973 41.4375 13.7754C41.3789 13.847 41.3138 13.9219 41.2422 14C41.1771 14.0716 41.1152 14.1302 41.0566 14.1758C40.998 14.2214 40.959 14.2279 40.9395 14.1953C40.9264 14.1302 40.9199 13.9284 40.9199 13.5898C40.9199 13.4466 40.9199 13.2676 40.9199 13.0527C40.9264 12.8314 40.9329 12.5645 40.9395 12.252C40.9525 11.9395 40.9688 11.5749 40.9883 11.1582C41.0078 10.7415 41.0306 10.2598 41.0566 9.71289C40.9264 10.1556 40.8092 10.5462 40.7051 10.8848C40.6074 11.2233 40.5195 11.5195 40.4414 11.7734C40.3698 12.0208 40.3079 12.2324 40.2559 12.4082C40.2038 12.5775 40.1582 12.7174 40.1191 12.8281C40.0345 13.0885 39.9792 13.2415 39.9531 13.2871C39.9271 13.2936 39.8848 13.2741 39.8262 13.2285C39.7741 13.1829 39.7122 13.1178 39.6406 13.0332C39.5755 12.9421 39.5072 12.8346 39.4355 12.7109C39.3704 12.5872 39.3151 12.4505 39.2695 12.3008C39.224 12.1641 39.1654 11.9818 39.0938 11.7539C39.0286 11.5586 38.944 11.3047 38.8398 10.9922C38.7357 10.6732 38.6087 10.276 38.459 9.80078C38.498 10.3346 38.5306 10.8034 38.5566 11.207C38.5827 11.6107 38.6022 11.9622 38.6152 12.2617C38.6348 12.5612 38.6478 12.8151 38.6543 13.0234C38.6673 13.2253 38.6738 13.3945 38.6738 13.5312C38.6803 13.8438 38.6706 14.0228 38.6445 14.0684C38.5794 14.0684 38.5078 14.0391 38.4297 13.9805C38.3581 13.9154 38.2865 13.8405 38.2148 13.7559C38.1497 13.6647 38.0911 13.5768 38.0391 13.4922C37.9935 13.4076 37.9674 13.3457 37.9609 13.3066C37.9544 13.2806 37.9349 13.1602 37.9023 12.9453C37.8698 12.7305 37.8307 12.457 37.7852 12.125C37.7461 11.7865 37.7005 11.4089 37.6484 10.9922C37.6029 10.569 37.5573 10.1393 37.5117 9.70312C37.4727 9.26693 37.4401 8.84375 37.4141 8.43359C37.388 8.01693 37.375 7.64583 37.375 7.32031C37.375 7.26823 37.4401 7.19987 37.5703 7.11523C37.7005 7.02409 37.847 6.93945 38.0098 6.86133C38.179 6.77669 38.3353 6.70508 38.4785 6.64648C38.6217 6.58138 38.7096 6.54883 38.7422 6.54883C38.7682 6.54883 38.7943 6.6237 38.8203 6.77344C38.8529 6.92318 38.8887 7.11198 38.9277 7.33984C38.9668 7.56771 39.0091 7.82161 39.0547 8.10156C39.1003 8.38151 39.1523 8.64844 39.2109 8.90234C39.2565 9.16276 39.3118 9.43294 39.377 9.71289C39.429 9.95378 39.4876 10.2207 39.5527 10.5137C39.6243 10.8001 39.7025 11.0801 39.7871 11.3535C39.8783 10.9564 39.9596 10.5983 40.0312 10.2793C40.1094 9.95378 40.1777 9.67708 40.2363 9.44922C40.3079 9.18229 40.3698 8.94466 40.4219 8.73633C40.5391 8.22852 40.653 7.82812 40.7637 7.53516C40.8809 7.24219 40.9557 7.06966 40.9883 7.01758C41.0078 6.99154 41.0762 6.98503 41.1934 6.99805C41.3171 7.01107 41.4505 7.03385 41.5938 7.06641C41.737 7.09245 41.8672 7.125 41.9844 7.16406C42.1081 7.20312 42.1764 7.23568 42.1895 7.26172ZM44.7969 8.6582C44.8424 8.69727 44.8848 8.77214 44.9238 8.88281C44.9694 8.99349 45.0085 9.12695 45.041 9.2832C45.0736 9.43945 45.1029 9.60872 45.1289 9.79102C45.1549 9.97331 45.1777 10.1523 45.1973 10.3281C45.2168 10.5039 45.2298 10.6699 45.2363 10.8262C45.2493 10.9759 45.2591 11.0996 45.2656 11.1973C45.2721 11.3145 45.2754 11.4382 45.2754 11.5684C45.2819 11.6921 45.2819 11.8125 45.2754 11.9297C45.2754 12.0404 45.2689 12.1413 45.2559 12.2324C45.2493 12.3236 45.2363 12.3919 45.2168 12.4375C45.1777 12.5352 45.1094 12.6035 45.0117 12.6426C44.9206 12.6751 44.8164 12.6979 44.6992 12.7109C44.6406 12.7174 44.5397 12.7207 44.3965 12.7207C44.2598 12.7142 44.11 12.7077 43.9473 12.7012C43.791 12.6882 43.6413 12.6751 43.498 12.6621C43.3548 12.6491 43.2474 12.6361 43.1758 12.623C43.0326 12.5905 42.9284 12.5482 42.8633 12.4961C42.8047 12.444 42.7461 12.3691 42.6875 12.2715C42.668 12.2324 42.6517 12.1348 42.6387 11.9785C42.6257 11.8158 42.6159 11.6237 42.6094 11.4023C42.6094 11.1745 42.6126 10.9303 42.6191 10.6699C42.6257 10.4095 42.6354 10.1621 42.6484 9.92773C42.668 9.69336 42.6875 9.48828 42.707 9.3125C42.7331 9.13672 42.7656 9.01953 42.8047 8.96094C42.8698 8.86979 42.9805 8.78516 43.1367 8.70703C43.2995 8.62891 43.446 8.56706 43.5762 8.52148C43.6413 8.50195 43.7259 8.48893 43.8301 8.48242C43.9408 8.4694 44.0547 8.4694 44.1719 8.48242C44.2956 8.48893 44.4128 8.50846 44.5234 8.54102C44.6341 8.56706 44.7253 8.60612 44.7969 8.6582ZM44.25 11.6855C44.263 11.6595 44.276 11.5814 44.2891 11.4512C44.3086 11.3145 44.3216 11.1517 44.3281 10.9629C44.3411 10.7741 44.3477 10.5723 44.3477 10.3574C44.3542 10.1426 44.3574 9.94401 44.3574 9.76172C44.3574 9.57943 44.3509 9.42643 44.3379 9.30273C44.3249 9.17253 44.3086 9.09766 44.2891 9.07812C44.2565 9.05208 44.2077 9.04232 44.1426 9.04883C44.084 9.04883 44.0221 9.05859 43.957 9.07812C43.8919 9.09115 43.8333 9.11068 43.7812 9.13672C43.7292 9.15625 43.6934 9.17578 43.6738 9.19531C43.5892 9.26693 43.5436 9.38411 43.5371 9.54688C43.5371 9.59245 43.5306 9.72266 43.5176 9.9375C43.5111 10.1458 43.5078 10.3737 43.5078 10.6211C43.5078 10.862 43.5111 11.0866 43.5176 11.2949C43.5306 11.5033 43.5534 11.6302 43.5859 11.6758C43.6185 11.7214 43.6641 11.7572 43.7227 11.7832C43.7878 11.8027 43.8529 11.8125 43.918 11.8125C43.9896 11.8125 44.0547 11.8027 44.1133 11.7832C44.1784 11.7572 44.224 11.7246 44.25 11.6855ZM48.5273 7.53516C48.5469 7.69141 48.5534 8.00391 48.5469 8.47266C48.5469 8.67448 48.5404 8.91862 48.5273 9.20508C48.5208 9.49154 48.5078 9.83659 48.4883 10.2402C48.4688 10.6374 48.4427 11.0996 48.4102 11.627C48.3841 12.1478 48.3483 12.7402 48.3027 13.4043C48.2897 13.4694 48.2604 13.541 48.2148 13.6191C48.1758 13.6973 48.1302 13.7689 48.0781 13.834C48.026 13.8991 47.9707 13.9544 47.9121 14C47.8535 14.0391 47.8014 14.0521 47.7559 14.0391C47.7428 14.0326 47.7266 13.9805 47.707 13.8828C47.694 13.7852 47.681 13.6484 47.668 13.4727C47.375 13.6029 47.0983 13.6908 46.8379 13.7363C46.5775 13.7819 46.3659 13.7526 46.2031 13.6484C46.138 13.6094 46.0729 13.541 46.0078 13.4434C45.9492 13.3392 45.8939 13.2188 45.8418 13.082C45.7897 12.9453 45.7474 12.8021 45.7148 12.6523C45.6823 12.4961 45.666 12.3496 45.666 12.2129C45.666 12.1152 45.6725 11.985 45.6855 11.8223C45.6986 11.6595 45.7148 11.4837 45.7344 11.2949C45.7539 11.0996 45.7767 10.9043 45.8027 10.709C45.8288 10.5072 45.8548 10.3216 45.8809 10.1523C45.9069 9.98307 45.9297 9.83984 45.9492 9.72266C45.9688 9.60547 45.985 9.53385 45.998 9.50781C46.0111 9.42969 46.0339 9.36458 46.0664 9.3125C46.1055 9.26042 46.138 9.22135 46.1641 9.19531C46.2292 9.14323 46.3236 9.10417 46.4473 9.07812C46.5775 9.05208 46.7109 9.03581 46.8477 9.0293C46.9909 9.02279 47.1243 9.02604 47.248 9.03906C47.3717 9.04557 47.4629 9.05859 47.5215 9.07812H47.541C47.528 8.27083 47.528 7.64909 47.541 7.21289C47.554 6.77669 47.5801 6.54232 47.6191 6.50977C47.6452 6.49023 47.7038 6.50651 47.7949 6.55859C47.8861 6.61068 47.9805 6.68555 48.0781 6.7832C48.1823 6.88086 48.2767 6.99805 48.3613 7.13477C48.4525 7.26497 48.5078 7.39844 48.5273 7.53516ZM47.043 13.0039C47.1341 12.9844 47.2155 12.9616 47.2871 12.9355C47.3652 12.903 47.4303 12.8737 47.4824 12.8477C47.541 12.8216 47.5898 12.7891 47.6289 12.75C47.6224 12.5807 47.6159 12.3919 47.6094 12.1836C47.6029 11.9688 47.5964 11.7474 47.5898 11.5195C47.5833 11.2917 47.5768 11.0605 47.5703 10.8262C47.5638 10.5853 47.5573 10.3542 47.5508 10.1328C47.5508 10.0612 47.5378 9.99935 47.5117 9.94727C47.4922 9.89518 47.4661 9.85286 47.4336 9.82031C47.4141 9.80729 47.375 9.79102 47.3164 9.77148C47.2578 9.74544 47.1895 9.72591 47.1113 9.71289C47.0397 9.69336 46.9681 9.68359 46.8965 9.68359C46.8314 9.68359 46.7858 9.69661 46.7598 9.72266C46.7467 9.72917 46.7337 9.79427 46.7207 9.91797C46.7142 10.0352 46.7044 10.1849 46.6914 10.3672C46.6849 10.543 46.6751 10.735 46.6621 10.9434C46.6556 11.1517 46.6491 11.347 46.6426 11.5293C46.6361 11.7116 46.6296 11.8678 46.623 11.998C46.6165 12.1283 46.6133 12.1999 46.6133 12.2129C46.6133 12.3236 46.6263 12.4277 46.6523 12.5254C46.6849 12.623 46.724 12.7109 46.7695 12.7891C46.8151 12.8607 46.8639 12.9193 46.916 12.9648C46.9681 13.0039 47.0104 13.0169 47.043 13.0039ZM51.6328 8.86328C51.6719 8.90885 51.7077 8.95768 51.7402 9.00977C51.7728 9.05534 51.8021 9.12044 51.8281 9.20508C51.8542 9.2832 51.8737 9.38737 51.8867 9.51758C51.9062 9.64779 51.916 9.81706 51.916 10.0254C51.916 10.3574 51.9062 10.6927 51.8867 11.0312C51.8737 11.3633 51.8607 11.6562 51.8477 11.9102C51.8411 12.138 51.8346 12.3496 51.8281 12.5449C51.8216 12.7402 51.8151 12.9128 51.8086 13.0625C51.8021 13.2057 51.7923 13.3197 51.7793 13.4043C51.7728 13.4889 51.7663 13.5345 51.7598 13.541C51.7337 13.5605 51.6914 13.554 51.6328 13.5215C51.5807 13.4824 51.5221 13.4336 51.457 13.375C51.3984 13.3164 51.3431 13.2546 51.291 13.1895C51.2389 13.1243 51.2064 13.0723 51.1934 13.0332C51.1934 13.0007 51.1836 12.9062 51.1641 12.75C51.0078 12.8411 50.8353 12.9062 50.6465 12.9453C50.4577 12.9779 50.2689 12.9909 50.0801 12.9844C49.8978 12.9714 49.7285 12.9355 49.5723 12.877C49.416 12.8184 49.2988 12.7402 49.2207 12.6426C49.1882 12.6035 49.1589 12.5449 49.1328 12.4668C49.1133 12.3887 49.0938 12.3008 49.0742 12.2031C49.0612 12.099 49.0482 11.9915 49.0352 11.8809C49.0221 11.7637 49.0124 11.6562 49.0059 11.5586C48.9928 11.3047 49.0254 11.0866 49.1035 10.9043C49.1816 10.7155 49.3249 10.5755 49.5332 10.4844C49.6243 10.4453 49.7448 10.4258 49.8945 10.4258C50.0508 10.4193 50.2038 10.4258 50.3535 10.4453C50.5098 10.4583 50.6497 10.4779 50.7734 10.5039C50.8971 10.5234 50.9753 10.5397 51.0078 10.5527C50.9818 10.2207 50.9622 9.93424 50.9492 9.69336C50.9362 9.44596 50.9102 9.28646 50.8711 9.21484C50.8385 9.16927 50.7995 9.1237 50.7539 9.07812C50.7148 9.04557 50.6628 9.00977 50.5977 8.9707C50.5326 8.93164 50.4544 8.90234 50.3633 8.88281C50.2917 8.86979 50.2266 8.89909 50.168 8.9707C50.1159 9.03581 50.0671 9.15299 50.0215 9.32227C49.9824 9.48503 49.9596 9.73568 49.9531 10.0742C49.7253 10.0807 49.5495 10.0807 49.4258 10.0742C49.3086 10.0612 49.2207 10.0482 49.1621 10.0352C49.0905 10.0221 49.0482 10.0059 49.0352 9.98633C49.0221 9.96029 49.0286 9.86589 49.0547 9.70312C49.0807 9.53385 49.1165 9.35156 49.1621 9.15625C49.2142 8.96094 49.2728 8.77539 49.3379 8.59961C49.4095 8.42383 49.4844 8.31315 49.5625 8.26758C49.7188 8.17643 49.9043 8.14388 50.1191 8.16992C50.3405 8.19596 50.5553 8.2513 50.7637 8.33594C50.972 8.42057 51.1576 8.51497 51.3203 8.61914C51.4831 8.72331 51.5872 8.80469 51.6328 8.86328ZM51.0273 11.7148C51.0273 11.6823 51.0306 11.64 51.0371 11.5879C51.0436 11.5293 51.0469 11.4707 51.0469 11.4121C51.0469 11.3535 51.0436 11.2982 51.0371 11.2461C51.0371 11.194 51.0306 11.1549 51.0176 11.1289C50.998 11.0898 50.9395 11.0573 50.8418 11.0312C50.7507 11.0052 50.6465 10.9889 50.5293 10.9824C50.4121 10.9694 50.3014 10.9661 50.1973 10.9727C50.0931 10.9727 50.0215 10.9857 49.9824 11.0117C49.9303 11.0443 49.8913 11.0898 49.8652 11.1484C49.8457 11.207 49.8327 11.2982 49.8262 11.4219C49.8262 11.4805 49.8294 11.5423 49.8359 11.6074C49.8424 11.6725 49.849 11.7376 49.8555 11.8027C49.8685 11.8613 49.8815 11.9134 49.8945 11.959C49.9141 12.0046 49.9336 12.0339 49.9531 12.0469C49.9987 12.0794 50.0768 12.1087 50.1875 12.1348C50.3047 12.1543 50.4219 12.1608 50.5391 12.1543C50.6562 12.1413 50.7637 12.1022 50.8613 12.0371C50.959 11.972 51.0143 11.8646 51.0273 11.7148ZM53.3516 13.9414C53.306 13.9544 53.2539 13.9382 53.1953 13.8926C53.1367 13.847 53.0781 13.7917 53.0195 13.7266C52.9674 13.6549 52.9219 13.5801 52.8828 13.502C52.8438 13.4238 52.8177 13.3587 52.8047 13.3066C52.7591 12.7337 52.7201 12.2227 52.6875 11.7734C52.6615 11.3177 52.6387 10.9141 52.6191 10.5625C52.5996 10.2109 52.5833 9.9082 52.5703 9.6543C52.5638 9.39388 52.5605 9.17253 52.5605 8.99023C52.554 8.56706 52.5605 8.27409 52.5801 8.11133C52.5996 7.99414 52.6517 7.87695 52.7363 7.75977C52.8275 7.64258 52.9219 7.54167 53.0195 7.45703C53.1237 7.3724 53.2181 7.30729 53.3027 7.26172C53.3939 7.21615 53.4525 7.20312 53.4785 7.22266C53.5046 7.24219 53.5241 7.35286 53.5371 7.55469C53.5501 7.75 53.5599 8.00716 53.5664 8.32617C53.5729 8.64518 53.5729 9.00326 53.5664 9.40039C53.5664 9.79753 53.5599 10.2044 53.5469 10.6211C53.5404 11.0378 53.5306 11.4447 53.5176 11.8418C53.5046 12.2389 53.4883 12.5938 53.4688 12.9062C53.4492 13.2122 53.4297 13.4596 53.4102 13.6484C53.3906 13.8372 53.3711 13.9349 53.3516 13.9414ZM57.1309 9.19531C57.1374 9.26693 57.1243 9.3776 57.0918 9.52734C57.0658 9.67708 57.0234 9.82682 56.9648 9.97656C56.9128 10.1263 56.8411 10.2565 56.75 10.3672C56.6654 10.4779 56.5677 10.5332 56.457 10.5332C56.3789 10.5332 56.3138 10.4714 56.2617 10.3477C56.2161 10.224 56.1803 10.0807 56.1543 9.91797C56.1348 9.7487 56.1185 9.58268 56.1055 9.41992C56.0924 9.25716 56.0794 9.14323 56.0664 9.07812C56.0469 9.04557 56.0078 9.01628 55.9492 8.99023C55.8971 8.95768 55.8451 8.94141 55.793 8.94141C55.7409 8.94141 55.6823 8.98372 55.6172 9.06836C55.5521 9.15299 55.487 9.25065 55.4219 9.36133C55.3633 9.47201 55.3112 9.58268 55.2656 9.69336C55.2266 9.80404 55.2103 9.88542 55.2168 9.9375C55.2168 9.97656 55.2591 10.0449 55.3438 10.1426C55.4284 10.2402 55.5326 10.3574 55.6562 10.4941C55.7865 10.6243 55.9232 10.7676 56.0664 10.9238C56.2161 11.0736 56.3529 11.2266 56.4766 11.3828C56.6003 11.5326 56.7044 11.6758 56.7891 11.8125C56.8802 11.9492 56.929 12.0664 56.9355 12.1641C56.9421 12.2812 56.9095 12.431 56.8379 12.6133C56.7728 12.7956 56.6882 12.9714 56.584 13.1406C56.4798 13.3099 56.3691 13.4564 56.252 13.5801C56.1348 13.7038 56.0306 13.7689 55.9395 13.7754C55.8483 13.7819 55.7148 13.7331 55.5391 13.6289C55.3698 13.5182 55.1973 13.3913 55.0215 13.248C54.8522 13.0983 54.6992 12.9518 54.5625 12.8086C54.4323 12.6654 54.3574 12.5612 54.3379 12.4961C54.3184 12.4375 54.3053 12.3594 54.2988 12.2617C54.2988 12.1641 54.3021 12.0664 54.3086 11.9688C54.3216 11.8711 54.3411 11.7897 54.3672 11.7246C54.3932 11.653 54.4258 11.6172 54.4648 11.6172C54.5039 11.6172 54.582 11.6855 54.6992 11.8223C54.8164 11.9525 54.9434 12.1022 55.0801 12.2715C55.2168 12.4342 55.3503 12.584 55.4805 12.7207C55.6107 12.8509 55.7051 12.916 55.7637 12.916C55.7962 12.916 55.832 12.8932 55.8711 12.8477C55.9102 12.7956 55.946 12.737 55.9785 12.6719C56.0111 12.6068 56.0371 12.5417 56.0566 12.4766C56.0827 12.4049 56.0957 12.3496 56.0957 12.3105C56.0892 12.252 56.0371 12.1673 55.9395 12.0566C55.8418 11.946 55.7181 11.8223 55.5684 11.6855C55.4186 11.5488 55.2559 11.4056 55.0801 11.2559C54.9043 11.0996 54.7415 10.9531 54.5918 10.8164C54.4421 10.6797 54.3184 10.556 54.2207 10.4453C54.123 10.3346 54.071 10.25 54.0645 10.1914C54.0579 10.1328 54.0775 10.0417 54.123 9.91797C54.1686 9.78776 54.2272 9.64779 54.2988 9.49805C54.3704 9.3418 54.4518 9.18229 54.543 9.01953C54.6406 8.85677 54.7383 8.70703 54.8359 8.57031C54.9336 8.43359 55.028 8.32292 55.1191 8.23828C55.2168 8.14714 55.3014 8.10156 55.373 8.10156C55.5163 8.10156 55.6855 8.14062 55.8809 8.21875C56.0827 8.29688 56.2747 8.39453 56.457 8.51172C56.6393 8.6224 56.7956 8.73958 56.9258 8.86328C57.056 8.98698 57.1243 9.09766 57.1309 9.19531Z" fill="black"/>
<defs>
<linearGradient id="paint0_linear_20_2" x1="39" y1="24" x2="39" y2="26" gradientUnits="userSpaceOnUse">
<stop stop-opacity="0.7"/>
<stop offset="1" stop-opacity="0.1"/>
</linearGradient>
<linearGradient id="paint1_linear_20_2" x1="39" y1="35" x2="39" y2="37" gradientUnits="userSpaceOnUse">
<stop stop-opacity="0.7"/>
<stop offset="1" stop-opacity="0.1"/>
</linearGradient>
<linearGradient id="paint2_linear_20_2" x1="39" y1="46" x2="39" y2="48" gradientUnits="userSpaceOnUse">
<stop stop-opacity="0.7"/>
<stop offset="1" stop-opacity="0.1"/>
</linearGradient>
</defs>
</svg>
